<svg xmlns="http://www.w3.org/2000/svg" width="21" height="37" viewBox="0 0 21 37">
  <defs>
    <style>
      .cls-1 {
        fill-rule: evenodd;
      }
    </style>
  </defs>
  <path class="cls-1" d="M972,2677.22a10.128,10.128,0,0,0-10.023-10.23h-0.954A10.128,10.128,0,0,0,951,2677.22v16.55A10.128,10.128,0,0,0,961.023,2704h0.954A10.128,10.128,0,0,0,972,2693.77v-16.55Zm-0.955,16.55a9.16,9.16,0,0,1-9.068,9.25h-0.954a9.16,9.16,0,0,1-9.069-9.25v-16.55a9.16,9.16,0,0,1,9.069-9.25h0.954a9.16,9.16,0,0,1,9.068,9.25v16.55Zm-9.545-21.95a1.961,1.961,0,0,0-1.909,2.08v2.74a1.916,1.916,0,1,0,3.818,0v-2.74A1.961,1.961,0,0,0,961.5,2671.82Z" transform="translate(-951 -2667)"/>
</svg>
