<svg id="Группа_7" data-name="Группа 7" xmlns="http://www.w3.org/2000/svg" width="53.75" height="38.875" viewBox="0 0 53.75 38.875">
  <defs>
    <style>
      .cls-1 {
        fill-rule: evenodd;
      }
    </style>
  </defs>
  <path id="Фигура_1" data-name="Фигура 1" class="cls-1" d="M555.117,63.921h48.769a2.49,2.49,0,0,1,0,4.98H555.117A2.49,2.49,0,0,1,555.117,63.921Z" transform="translate(-552.625 -63.906)"/>
  <path id="Фигура_1_копия" data-name="Фигура 1 копия" class="cls-1" d="M555.117,80.522h48.769a2.49,2.49,0,0,1,0,4.981H555.117A2.49,2.49,0,0,1,555.117,80.522Z" transform="translate(-552.625 -63.906)"/>
  <path id="Фигура_1_копия_2" data-name="Фигура 1 копия 2" class="cls-1" d="M555.117,97.789h48.769a2.491,2.491,0,0,1,0,4.981H555.117A2.491,2.491,0,0,1,555.117,97.789Z" transform="translate(-552.625 -63.906)"/>
</svg>
